<svg width="172" height="118" viewBox="0 0 172 118" fill="none" xmlns="http://www.w3.org/2000/svg">
<path fill-rule="evenodd" clip-rule="evenodd" d="M104.761 66.8752C104.761 66.8752 112.444 66.3339 115.684 68.1689C115.684 68.1689 142.245 81.3441 159.46 71.2976C159.46 71.2976 174.358 63.2863 166.49 45.7806C166.49 45.7806 160.27 29.5416 154.3 23.5061C154.3 23.5061 151.103 19.8415 157.698 21.4979C157.698 21.4979 172.553 25.287 170.96 18.1851C170.96 18.1851 166.447 10.6502 158.323 10.3038C158.323 10.3038 149.08 8.92345 132.899 19.7982C132.899 19.7982 127.342 23.9446 120.725 22.5588C120.725 22.5588 107.077 21.5899 107.816 17.3082C110.414 14.4637 111.864 10.7645 111.889 6.92063C111.889 6.92063 110.568 -2.6171 96.1209 0.701079C86.0207 5.45808 76.7826 11.8491 68.7822 19.6141C68.7822 19.6141 39.535 42.0944 17.601 42.0024C17.601 42.0024 -0.630213 40.6166 0.0168242 51.3073C0.0168242 51.3073 -0.445349 68.629 27.1326 74.6158C27.1326 74.6158 61.3875 85.1224 82.0166 73.6035C81.9948 73.6035 94.0275 66.047 104.761 66.8752ZM61.7133 44.0972C61.7133 44.0972 60.3921 44.1676 63.3771 42.3705L93.2278 17.974C93.2278 17.974 95.033 16.3176 93.5704 14.8669C93.5704 14.8669 91.7 13.6923 88.9215 16.3176L56.0912 42.4408C56.0912 42.4408 50.9529 46.2299 56.4392 47.6914L71.9191 49.9C71.9191 49.9 75.4588 50.7282 75.1108 47.1935C75.1108 47.1935 75.3174 45.0553 69.4886 44.7792L61.7133 44.0972ZM90.8788 38.2674C92.82 36.2862 91.1072 35.274 91.1072 35.274C89.4923 34.4675 88.1493 36.2213 88.1493 36.2321C84.3976 39.9617 80.4447 47.2855 80.4447 47.2855C75.4478 57.7921 82.8045 60.4174 82.8045 60.4174C91.0637 64.2066 99.187 57.7109 99.187 57.7109L114.874 44.6656C115.064 44.5189 115.224 44.3354 115.341 44.126C115.459 43.9166 115.533 43.6856 115.559 43.4469C115.585 43.2083 115.562 42.9669 115.492 42.7373C115.422 42.5076 115.306 42.2945 115.151 42.1106C114.384 41.1417 112.791 42.3867 112.791 42.3867L96.849 54.4577C95.155 55.7689 93.1685 56.6543 91.0578 57.0387C88.9471 57.4232 86.7744 57.2954 84.7238 56.6662C80.2326 53.8082 83.843 48.2382 83.843 48.2382L90.8788 38.2674ZM100.525 32.9248C101.663 32.9248 102.585 32.0063 102.585 30.8732C102.585 29.7402 101.663 28.8217 100.525 28.8217C99.3865 28.8217 98.4639 29.7402 98.4639 30.8732C98.4639 32.0063 99.3865 32.9248 100.525 32.9248ZM113.738 34.1914C113.738 35.3244 112.815 36.2429 111.677 36.2429C110.539 36.2429 109.616 35.3244 109.616 34.1914C109.616 33.0584 110.539 32.1399 111.677 32.1399C112.815 32.1399 113.738 33.0584 113.738 34.1914Z" fill="black"/>
<path d="M38.0504 110.077C37.865 110.076 37.683 110.027 37.5231 109.933C37.3632 109.84 37.231 109.706 37.1402 109.545C37.0483 109.387 37 109.207 37 109.025C37 108.842 37.0483 108.662 37.1402 108.504L51.4319 86.4327C51.5885 86.2163 51.8225 86.068 52.0857 86.0183C52.3489 85.9685 52.6212 86.0212 52.8466 86.1654C53.0719 86.3096 53.2331 86.5344 53.2969 86.7935C53.3607 87.0525 53.3223 87.326 53.1896 87.5577L39.9964 107.993L50.0508 107.764C50.3283 107.764 50.5945 107.874 50.7907 108.069C50.9869 108.265 51.0971 108.53 51.0971 108.806C51.0971 109.082 50.9869 109.347 50.7907 109.542C50.5945 109.738 50.3283 109.847 50.0508 109.847L38.0295 110.118L38.0504 110.077Z" fill="black"/>
<path d="M58.5668 110.514C57.9314 110.521 57.3072 110.347 56.7672 110.014C56.16 109.781 55.6253 109.392 55.2175 108.888C54.8096 108.383 54.543 107.78 54.4445 107.139C54.026 103.733 58.8702 99.7024 59.4247 99.2649C59.5301 99.1706 59.6537 99.0985 59.7879 99.0531C59.9222 99.0078 60.0643 98.9901 60.2057 99.0011C60.347 99.0121 60.4846 99.0515 60.6102 99.1171C60.7358 99.1826 60.8466 99.2729 60.936 99.3825C61.0255 99.492 61.0916 99.6185 61.1305 99.7542C61.1693 99.89 61.18 100.032 61.1619 100.172C61.1439 100.312 61.0974 100.447 61.0254 100.569C60.9533 100.69 60.8573 100.796 60.7429 100.879C58.9957 102.296 56.3068 105.171 56.5579 106.889C56.5579 107.212 56.7672 107.712 57.7507 108.16L57.9599 108.285C58.314 108.462 58.7241 108.492 59.1003 108.368C59.9897 108.139 61.8101 107.077 64.0595 102.598C64.118 102.471 64.2015 102.357 64.305 102.263C64.4085 102.169 64.5299 102.097 64.662 102.051C64.7941 102.004 64.9342 101.985 65.0741 101.993C65.2139 102.002 65.3506 102.038 65.4761 102.1C65.6016 102.162 65.7132 102.249 65.8044 102.355C65.8956 102.46 65.9646 102.584 66.0071 102.716C66.0497 102.849 66.065 102.989 66.0521 103.128C66.0393 103.267 65.9985 103.402 65.9323 103.525C63.8922 107.598 61.7473 109.91 59.4875 110.42C59.1844 110.482 58.876 110.513 58.5668 110.514Z" fill="black"/>
<path d="M69.6152 112.587C68.2349 112.608 66.869 112.305 65.629 111.701C65.497 111.636 65.3803 111.544 65.2866 111.431C65.1928 111.318 65.1241 111.186 65.0849 111.045C65.0479 110.904 65.0409 110.758 65.0643 110.614C65.0878 110.471 65.1411 110.334 65.2209 110.212L75.1498 94.8487C73.9152 94.8487 72.6493 94.8486 71.4252 94.9945C71.1477 95.0179 70.8722 94.9307 70.6593 94.752C70.4464 94.5733 70.3136 94.3177 70.29 94.0414C70.2664 93.7652 70.354 93.4909 70.5335 93.279C70.7131 93.067 70.9698 92.9348 71.2473 92.9113C73.7792 92.703 82.1178 92.2447 83.6244 95.2861C84.1894 96.4006 83.8232 97.6921 82.5781 99.0983C81.9105 100.061 81.0015 100.833 79.9416 101.338C81.8039 101.931 83.3419 102.817 83.6767 104.129C84.2521 106.358 81.3645 108.15 80.4229 108.733C80.1718 108.899 74.8464 112.587 69.6152 112.587ZM67.6796 110.264C72.5969 111.597 79.1883 107.046 79.2511 106.993C81.3436 105.723 81.7098 104.91 81.647 104.65C81.4168 103.765 78.2885 102.817 74.5325 102.411C73.9623 102.397 73.3931 102.356 72.8271 102.285L67.6796 110.264ZM74.6999 100.327C79.3975 100.4 80.7472 98.0775 80.81 97.9734C80.8504 97.9042 80.8958 97.838 80.946 97.7755C81.7097 96.9422 81.8562 96.4214 81.7516 96.2027C81.4273 95.5569 79.7533 95.1611 77.5666 94.9632L74.1349 100.275L74.6999 100.327Z" fill="black"/>
<path d="M83.5497 112.253C83.3744 112.254 83.2017 112.211 83.0475 112.128C82.9263 112.063 82.8194 111.974 82.7327 111.868C82.6461 111.761 82.5814 111.638 82.5425 111.507C82.5036 111.375 82.4912 111.237 82.5061 111.101C82.5209 110.964 82.5627 110.832 82.629 110.712L86.8663 103.088C86.9328 102.968 87.0225 102.862 87.13 102.777C87.2376 102.692 87.361 102.629 87.4931 102.591C87.6253 102.553 87.7636 102.542 87.9002 102.557C88.0368 102.573 88.169 102.615 88.2892 102.681C88.4094 102.748 88.5154 102.837 88.601 102.944C88.6866 103.051 88.7502 103.174 88.7881 103.305C88.8259 103.437 88.8374 103.575 88.8218 103.711C88.8062 103.847 88.7639 103.978 88.6972 104.098L84.4599 111.722C84.3691 111.883 84.2369 112.017 84.077 112.11C83.917 112.204 83.7351 112.253 83.5497 112.253Z" fill="black"/>
<path d="M94.4109 113.201C94.1975 113.201 93.9895 113.135 93.8145 113.014C93.5976 112.864 93.4458 112.637 93.3895 112.38C93.3332 112.123 93.3767 111.855 93.5111 111.628C93.7866 111.185 94.1055 110.77 94.4632 110.389C97.1939 106.712 97.2567 104.879 97.016 104.087C96.9673 103.901 96.8798 103.727 96.759 103.576C96.6382 103.425 96.487 103.301 96.315 103.213C94.1284 102.598 91.3244 107.504 90.2363 110.129L90.1736 110.285C90.0691 110.54 89.8673 110.744 89.6124 110.851C89.3575 110.958 89.0702 110.961 88.8135 110.858C88.5571 110.754 88.3527 110.553 88.2448 110.299C88.137 110.045 88.1345 109.759 88.238 109.504C88.2552 109.45 88.2762 109.398 88.3008 109.347L91.2198 102.192C91.3243 101.937 91.5261 101.733 91.781 101.626C92.036 101.518 92.3232 101.516 92.58 101.619C92.8336 101.722 93.0365 101.92 93.1449 102.171C93.6501 101.72 94.2579 101.398 94.9159 101.233C95.5739 101.068 96.2623 101.064 96.9219 101.223C97.4267 101.409 97.8798 101.712 98.2436 102.107C98.6075 102.502 98.8717 102.977 99.0144 103.494C99.3537 105.143 99.0627 106.859 98.1983 108.306C98.681 108.262 99.1677 108.29 99.6421 108.389C99.9196 108.444 100.164 108.607 100.321 108.841C100.478 109.076 100.535 109.363 100.479 109.639C100.424 109.915 100.26 110.158 100.025 110.315C99.7892 110.471 99.5011 110.528 99.2236 110.472C98.636 110.4 98.0398 110.478 97.4907 110.699C96.9417 110.919 96.458 111.275 96.0849 111.733C95.8128 112.097 95.5199 112.472 95.2165 112.847C95.1161 112.961 94.9921 113.051 94.8529 113.113C94.7138 113.174 94.563 113.204 94.4109 113.201Z" fill="black"/>
<path d="M100.401 117.993C100.261 117.991 100.122 117.962 99.9927 117.91C99.8655 117.857 99.7499 117.78 99.6526 117.683C99.5552 117.586 99.4781 117.471 99.4256 117.344C99.3732 117.218 99.3463 117.082 99.3467 116.945C99.3471 116.808 99.3746 116.672 99.4278 116.545L108.373 95.2972L100.641 95.8284C100.364 95.8464 100.091 95.7539 99.8817 95.5712C99.6727 95.3886 99.5452 95.1308 99.5272 94.8545C99.5091 94.5783 99.6021 94.3062 99.7855 94.0982C99.969 93.8902 100.228 93.7632 100.505 93.7453L118.668 92.4745C118.941 92.4572 119.209 92.5466 119.417 92.7237C119.624 92.9008 119.753 93.1515 119.777 93.4224C119.801 93.6923 119.718 93.9607 119.546 94.1707C119.374 94.3807 119.127 94.5158 118.857 94.5473L110.56 95.4639L101.363 117.337C101.286 117.529 101.154 117.694 100.982 117.811C100.811 117.928 100.609 117.991 100.401 117.993Z" fill="black"/>
<path d="M112.625 115.847C112.417 115.847 112.213 115.786 112.04 115.67C111.325 115.207 110.738 114.573 110.334 113.826L109.696 114.305C108.399 115.274 106.777 116.263 105.657 115.347C104.538 114.43 104.883 112.389 106.474 109.097C107.865 106.671 109.34 105.264 110.889 104.837C111.581 104.634 112.324 104.686 112.981 104.983C113.343 105.126 113.664 105.355 113.917 105.649C114.17 105.943 114.348 106.293 114.435 106.671C114.948 108.837 112.531 111.816 111.977 112.462C112.194 113.067 112.611 113.581 113.159 113.92C113.274 113.996 113.373 114.093 113.45 114.207C113.527 114.321 113.581 114.449 113.608 114.583C113.635 114.718 113.635 114.856 113.609 114.991C113.582 115.126 113.529 115.254 113.452 115.368C113.362 115.507 113.241 115.623 113.097 115.707C112.953 115.79 112.792 115.838 112.625 115.847ZM111.82 106.816C111.318 106.816 110.01 107.15 108.325 110.097C107.789 111.168 107.392 112.302 107.143 113.472C107.596 113.236 108.027 112.961 108.43 112.649L110.25 111.274L110.376 111.191C111.349 110.056 112.605 108.066 112.416 107.202C112.416 107.129 112.416 107.035 112.134 106.931L112.019 106.879C112.019 106.879 112.019 106.816 111.82 106.816Z" fill="black"/>
<path d="M121.395 113.201C121.207 113.201 121.023 113.151 120.861 113.055C120.657 112.935 120.5 112.748 120.416 112.527C120.332 112.305 120.327 112.062 120.401 111.837C120.541 111.416 120.812 111.052 121.175 110.795C123.184 108.514 123.267 107.379 123.267 106.983C123.264 106.906 123.242 106.831 123.204 106.764C123.166 106.697 123.112 106.64 123.048 106.598C122.315 106.202 120.307 107.983 118.434 110.504C118.034 111.253 117.546 111.952 116.979 112.587C116.807 112.782 116.568 112.907 116.309 112.935C116.05 112.964 115.789 112.896 115.577 112.743C115.366 112.588 115.22 112.36 115.17 112.103C115.119 111.847 115.168 111.58 115.305 111.358C115.598 110.868 116.08 110.129 116.666 109.275C117.32 107.933 117.735 106.488 117.89 105.004C117.909 104.728 118.038 104.471 118.248 104.289C118.458 104.107 118.732 104.016 119.009 104.035C119.287 104.055 119.545 104.183 119.728 104.392C119.91 104.601 120.002 104.874 119.982 105.15C119.982 105.15 119.982 105.369 119.982 105.681C121.332 104.587 122.776 103.983 124.052 104.64C124.392 104.818 124.688 105.071 124.916 105.38C125.144 105.688 125.3 106.044 125.37 106.421C125.522 107.425 125.322 108.451 124.805 109.327C127.515 108.764 131.909 108.504 139.034 109.108C139.312 109.13 139.569 109.261 139.75 109.472C139.93 109.683 140.019 109.957 139.997 110.233C139.975 110.509 139.843 110.765 139.631 110.945C139.419 111.125 139.144 111.213 138.867 111.191C126.992 110.149 123.55 111.691 122.692 112.233L122.263 112.691C122.173 112.842 122.046 112.968 121.895 113.057C121.743 113.146 121.571 113.196 121.395 113.201Z" fill="black"/>
<path d="M68.4639 100.036C69.1689 100.036 69.7403 99.4668 69.7403 98.765C69.7403 98.0632 69.1689 97.4943 68.4639 97.4943C67.759 97.4943 67.1875 98.0632 67.1875 98.765C67.1875 99.4668 67.759 100.036 68.4639 100.036Z" fill="black"/>
<path d="M62.9922 98.0463C63.6972 98.0463 64.2687 97.4773 64.2687 96.7755C64.2687 96.0737 63.6972 95.5048 62.9922 95.5048C62.2873 95.5048 61.7158 96.0737 61.7158 96.7755C61.7158 97.4773 62.2873 98.0463 62.9922 98.0463Z" fill="black"/>
<path d="M90.4042 100.279C91.5817 100.012 92.4448 99.3956 92.3318 98.902C92.2189 98.4085 91.1728 98.2247 89.9953 98.4917C88.8178 98.7587 87.9548 99.3752 88.0677 99.8688C88.1806 100.362 89.2267 100.546 90.4042 100.279Z" fill="black"/>
</svg>
